<svg xmlns="http://www.w3.org/2000/svg" viewBox="0 0 1050.88 1021.57"><defs><style>.cls-1{fill:#fff;}</style></defs><g id="Layer_1" data-name="Layer 1"><path class="cls-1" d="M970.88,0h-660a80,80,0,0,0-80,80V900a80,80,0,0,0,80,80h596L748,801.27H435.88a60,60,0,0,1,0-120h410a59.67,59.67,0,0,1,8.28.57h56.72V513.36c0-77.2,62.79-140,140-140V80A80,80,0,0,0,970.88,0ZM421,568.78c1-58.06,20.68-108.54,60.63-150.69s89.18-64.38,146.82-69C566,340.32,526.84,286.59,531.34,231c4.59-56.65,51.27-100.55,106.58-101.61A110.39,110.39,0,0,1,749.59,222.9c9.07,59.3-31.93,117.4-96.08,126.15,75.17,6.89,133.91,41.31,174.48,105.14,22.06,34.72,32.4,73.14,32.73,114.59Z" transform="translate(-230.88)"/></g><g id="Layer_3" data-name="Layer 3"><path class="cls-1" d="M1281.75,761.84l-230.87,259.73L820,761.84H990.87V513.36a60,60,0,0,1,120,0V761.84Z" transform="translate(-230.88)"/></g></svg>