<svg id="Layer_1" data-name="Layer 1" xmlns="http://www.w3.org/2000/svg" viewBox="0 0 419.88 419.86"><defs><style>.cls-1{fill:#e5e5e5;}</style></defs><title>favicon</title><path class="cls-1" d="M459.94,220.27q0,56.13,0,112.25v116.1a14.82,14.82,0,0,1-.34,3.81,9.89,9.89,0,0,1-9.42,7.49c-.72,0-1.44,0-2.16,0H319.45c-44.6,0-84.35-30.48-96-73.61A97.91,97.91,0,0,1,220,360.49q.07-24.94,0-49.89a10.91,10.91,0,0,1,3.31-8.18q9.6-9.56,19.17-19.16c3-3,6.47-4,10.53-2.82a9.85,9.85,0,0,1,7,9.09c0,.79,0,1.6,0,2.39q0,33.82,0,67.65a60.08,60.08,0,0,0,44.72,58.36,58.58,58.58,0,0,0,15.18,2q48.69.06,97.38,0c.32,0,.64,0,1,0,1.1.09,1.66-.36,1.59-1.51,0-.48,0-1,0-1.44q0-98.22,0-196.45a60.37,60.37,0,0,0-39.58-56.87A65.46,65.46,0,0,0,357.69,160q-58.29,0-116.57,0a13.87,13.87,0,0,1-3.58-.24,10.3,10.3,0,0,1-5.6-16.14,18,18,0,0,1,1.6-1.78c6-6,12-11.94,18-18a12.3,12.3,0,0,1,9.41-3.86c33.18.07,66.36,0,99.54,0,45.7,0,86.09,32,96.69,76.44A102.22,102.22,0,0,1,459.94,220.27Z" transform="translate(-40.06 -40.07)"/><path class="cls-1" d="M267.91,56.23a20.35,20.35,0,0,1-1.78,1.94C260.08,64.23,254,70.23,248,76.34a12.1,12.1,0,0,1-9.21,3.79q-48.93-.07-97.85,0c-16.51,0-30.87,5.57-42.71,17.1a58.51,58.51,0,0,0-17.84,37,72.82,72.82,0,0,0-.34,7.66q0,98.1,0,196.2a13.4,13.4,0,0,1-4.3,10.43c-6.23,6-12.26,12.16-18.35,18.29a10,10,0,0,1-9.63,3,9.78,9.78,0,0,1-7.74-9.19c0-.79,0-1.59,0-2.39V246.62c0-35.66.08-71.32,0-107-.11-43.77,29.64-84.19,74-96.18a98.28,98.28,0,0,1,25.83-3.4q59.48,0,119,0a13.39,13.39,0,0,1,4,.41A10,10,0,0,1,267.91,56.23Z" transform="translate(-40.06 -40.07)"/></svg>