<svg id="Layer_1" data-name="Layer 1" xmlns="http://www.w3.org/2000/svg" viewBox="0 0 1023.92 1010.46"><defs><style>.cls-1{fill:#fff;}</style></defs><g id="Layer_1-2" data-name="Layer 1"><path class="cls-1" d="M970.88,0h-660a80,80,0,0,0-80,80V900a80,80,0,0,0,80,80h596L748,801.27H435.88a60,60,0,0,1,0-120h475V513.36c0-77.2,62.79-140,140-140V80A80,80,0,0,0,970.88,0ZM421,568.78c1-58.06,20.68-108.54,60.63-150.69C510.18,388,543.46,368,581.17,357.41c-30.26-22.09-50.29-60.49-50.29-104.16q0-4.16.25-8.23a106,106,0,0,1,.21-14c4.38-54.11,47.17-96.59,99.19-101.21a99,99,0,0,1,27.49,1l1,.17a110.4,110.4,0,0,1,90.59,92,108,108,0,0,1,1.07,22.58q.23,3.86.22,7.77c0,43.76-20.1,82.21-50.46,104.28,53.07,14.86,95.87,46.78,127.57,96.66,22.06,34.72,32.4,73.14,32.73,114.59Z" transform="translate(-230.88)"/></g><g id="Layer_3" data-name="Layer 3"><path class="cls-1" d="M1249.22,798.43l-181.9,204.64a22,22,0,0,1-32.79.11l-182-204.79C840,784.2,850,761.84,869,761.84H990.87V513.36a60,60,0,0,1,120,0V761.84h121.89C1251.73,761.84,1261.8,784.24,1249.22,798.43Z" transform="translate(-230.88)"/></g></svg>