<svg id="Layer_1" data-name="Layer 1" xmlns="http://www.w3.org/2000/svg" viewBox="0 0 870.93 507.29"><defs><style>.cls-1{fill:#e5e5e5;}</style></defs><path class="cls-1" d="M670.17,344v9.62q0,3.38-3.52,3.38H630.16q-17.37,0-27.31-10.14t-9.94-28.34V262.83q0-18.19,9.94-28.34t27.31-10.14h36.49q3.52,0,3.52,3.64v9.62q0,3.38-3.52,3.38H632.17q-20.89,0-20.89,22.62v54.08q0,22.62,20.89,22.62h34.48Q670.18,340.31,670.17,344Z" transform="translate(-300.21 -126.1)"/><path class="cls-1" d="M734.27,358H723q-3.53,0-3.52-3.64V178.81q0-3.65,3.52-3.64h11.32q3.53,0,3.53,3.64v60.32h1q6.3-13.78,25.68-13.78h14.09q17.11,0,26.68,10.14t9.56,28.34v90.48q0,3.65-3.52,3.64H800q-3.53,0-3.52-3.64v-89.7q0-22.62-21.14-22.62H761.2q-11.33,0-17.36,6.24t-6,17.68v88.4Q737.8,358,734.27,358Z" transform="translate(-300.21 -126.1)"/><path class="cls-1" d="M1170.74,262.83v33a4,4,0,0,1-1.07,3.11,3.59,3.59,0,0,1-2.46.79c-2.06,0-22,.12-50,.23a2.55,2.55,0,0,1-1.81-4.35l8.88-8.88a2.58,2.58,0,0,1,1.81-.75c13.3,0,22.85,0,24.29,0a2.26,2.26,0,0,0,2.52-2.6v-20q0-22.37-21.14-22.36h-17.12q-21.13,0-21.14,22.36V318q0,22.62,21.14,22.62H1166c2.34,0,3.52,1.21,3.52,3.64v9.36c0,2.25-1.18,3.38-3.52,3.38H1112.6q-17.37,0-27.31-10.14t-9.94-28.34V262.83c0-12.13,3-22.07,9.65-28.83s16-9.65,27.6-9.65h21.14q17.37,0,27.18,10.14T1170.74,262.83Z" transform="translate(-300.21 -126.1)"/><path class="cls-1" d="M959.74,262.83v33a4,4,0,0,1-1.07,3.11,3.59,3.59,0,0,1-2.46.79c-2.06,0-22,.12-50,.23a2.55,2.55,0,0,1-1.81-4.35l8.88-8.88a2.58,2.58,0,0,1,1.81-.75c13.3,0,22.85,0,24.29,0a2.26,2.26,0,0,0,2.52-2.6v-20q0-22.37-21.14-22.36H903.61q-21.14,0-21.14,22.36V318q0,22.62,21.14,22.62H955c2.34,0,3.52,1.21,3.52,3.64v9.36c0,2.25-1.18,3.38-3.52,3.38H901.6q-17.37,0-27.31-10.14t-9.94-28.34V262.83c0-12.13,3-22.07,9.65-28.83s16-9.65,27.6-9.65h21.14q17.37,0,27.18,10.14T959.74,262.83Z" transform="translate(-300.21 -126.1)"/><path class="cls-1" d="M1029.38,357h-11.32q-3.52,0-3.53-3.64V177.81q0-3.65,3.53-3.64h11.32q3.52,0,3.53,3.64v175.5Q1032.91,357,1029.38,357Z" transform="translate(-300.21 -126.1)"/><path class="cls-1" d="M535.43,627H524.1q-3.52,0-3.52-3.64V498q0-3.64,3.52-3.64h11.33q3.52,0,3.52,3.64v10.14h1q6.28-13.78,25.67-13.78h14.09q17.12,0,26.68,10.14T616,532.83v90.48q0,3.65-3.53,3.64H601.12q-3.52,0-3.53-3.64v-89.7q0-22.62-21.14-22.62H562.36Q551,511,545,517.23t-6,17.68v88.4Q539,627,535.43,627Z" transform="translate(-300.21 -126.1)"/><path class="cls-1" d="M662.8,508H649q-3.53,0-3.52-3.38V495q0-3.64,3.52-3.64H662.8q2.52,0,2.52-2.34V466.65q0-3.64,3.52-3.64h11.33q3.27,0,3.27,3.64V489c0,1.56.92,2.34,2.77,2.34l29.14-.29a2.72,2.72,0,0,1,1.95,4.64l-11.5,11.5a2.74,2.74,0,0,1-1.93.8H686.21c-1.85,0-2.77.78-2.77,2.34v74.88q0,22.1,22.15,22.1h9.82q3.76,0,3.77,3.64v9.62q0,3.38-3.77,3.38H703.32q-17.36,0-27.68-10t-10.32-28V510.33Q665.32,508,662.8,508Z" transform="translate(-300.21 -126.1)"/><path class="cls-1" d="M807.82,627H786.17q-17.35,0-27.3-10.14t-9.94-28.34V532.83q0-18.2,9.94-28.34t27.3-10.14h21.65q17.37,0,27.31,10.14t9.94,28.34v55.64q0,18.19-9.94,28.34T807.82,627Zm-19.63-16.64H805.8Q827,610.31,827,588v-54.6Q827,511,805.8,511H788.19q-21.15,0-21.14,22.36V588Q767.05,610.32,788.19,610.31Z" transform="translate(-300.21 -126.1)"/><path class="cls-1" d="M889.71,627H878.39q-3.52,0-3.52-3.64V498q0-3.64,3.52-3.64h11.32q3.52,0,3.53,3.64v10.14h1q6.29-13.78,25.67-13.78H934q17.12,0,26.68,10.14t9.56,28.34v90.48q0,3.65-3.52,3.64H955.4q-3.52,0-3.52-3.64v-89.7q0-22.62-21.14-22.62h-14.1q-11.32,0-17.36,6.24t-6,17.68v88.4Q893.24,627,889.71,627Z" transform="translate(-300.21 -126.1)"/><path class="cls-1" d="M1014.57,469.51V445.07q0-3.65,3.27-3.64h11.58c2.34,0,3.52,1.21,3.52,3.64v24.44c0,2.43-1.18,3.64-3.52,3.64h-11.58Q1014.57,473.15,1014.57,469.51Zm0,150.8V495q0-3.64,3.27-3.64h11.58c2.34,0,3.52,1.21,3.52,3.64V620.31c0,2.43-1.18,3.64-3.52,3.64h-11.33Q1014.57,624,1014.57,620.31Z" transform="translate(-300.21 -126.1)"/><path class="cls-1" d="M1133.89,627h-21.65q-17.35,0-27.3-10.14T1075,588.47V532.83q0-18.2,9.94-28.34t27.3-10.14h21.65q17.35,0,27.31,10.14t9.94,28.34v55.64q0,18.19-9.94,28.34T1133.89,627Zm-19.63-16.64h17.61q21.15,0,21.15-22.36v-54.6q0-22.36-21.15-22.36h-17.61q-21.15,0-21.14,22.36V588Q1093.12,610.32,1114.26,610.31Z" transform="translate(-300.21 -126.1)"/><path class="cls-1" d="M547,263.39v89.73a5.74,5.74,0,0,1-.13,1.49,3.91,3.91,0,0,1-3.71,2.95H492.8a39.16,39.16,0,0,1-39.09-39.07q0-9.81,0-19.61a4.3,4.3,0,0,1,1.3-3.21l7.53-7.53a3.93,3.93,0,0,1,4.14-1.11,3.87,3.87,0,0,1,2.74,3.57c0,.31,0,.63,0,.94q0,13.29,0,26.59A23.62,23.62,0,0,0,487,341.06a23.18,23.18,0,0,0,6,.78h5q16.11,0,32.23,0c.13,0,.25,0,.38,0,.43,0,.65-.14.63-.6a5.23,5.23,0,0,1,0-.56c0-25.73,0-51.47,0-77.2a23.72,23.72,0,0,0-15.55-22.34,25.79,25.79,0,0,0-8.88-1.43H462a5.52,5.52,0,0,1-1.41-.1,4,4,0,0,1-2.2-6.34,7,7,0,0,1,.63-.7c2.35-2.36,4.73-4.69,7-7.07a4.86,4.86,0,0,1,3.7-1.52q13.6,0,27.21,0h10.91a39.31,39.31,0,0,1,38,30A40.22,40.22,0,0,1,547,263.39Z" transform="translate(-300.21 -126.1)"/><path class="cls-1" d="M444.92,137.12a10.69,10.69,0,0,1-1.21,1.32c-4.1,4.12-8.26,8.21-12.33,12.37a8.17,8.17,0,0,1-6.26,2.58q-28.11-.06-56.22,0a41,41,0,0,0-41.23,36.83c-.17,1.73-.22,3.48-.22,5.22v46.77h0c0,2.31,0,4.63,0,6.93h0q0,43.38,0,86.78a9.11,9.11,0,0,1-2.92,7.1c-4.25,4.07-8.35,8.28-12.49,12.46a6.83,6.83,0,0,1-6.55,2,6.68,6.68,0,0,1-5.29-6.26c0-.53,0-1.09,0-1.62V273.65q0-12.25,0-24.53h0v-6.93h0c0-16.09,0-32.19,0-48.28a68.15,68.15,0,0,1,50.38-65.47c2.5-.68,5.1-1.18,5.1-1.18a68.34,68.34,0,0,1,13.84-1.14h10.39q29.41,0,58.84,0a8.8,8.8,0,0,1,2.75.29A6.83,6.83,0,0,1,444.92,137.12Z" transform="translate(-300.21 -126.1)"/><path class="cls-1" d="M473.62,470.24V625.69a9.81,9.81,0,0,1-.23,2.59,6.77,6.77,0,0,1-6.42,5.11H379.72a68.12,68.12,0,0,1-65.36-50.12A67.27,67.27,0,0,1,312,565.7q0-17,0-34a7.44,7.44,0,0,1,2.25-5.56q6.53-6.51,13.05-13a6.81,6.81,0,0,1,7.17-1.92,6.71,6.71,0,0,1,4.75,6.18c0,.54,0,1.09,0,1.63q0,23,0,46.07a40.92,40.92,0,0,0,30.44,39.72A40.28,40.28,0,0,0,380,606.15h8.71q27.91.06,55.84,0c.22,0,.43,0,.65,0,.75.05,1.13-.24,1.1-1a7.85,7.85,0,0,1,0-1q0-66.87,0-133.74a41.08,41.08,0,0,0-26.94-38.71A44.67,44.67,0,0,0,404,429.24H326.4a9.51,9.51,0,0,1-2.45-.17,7,7,0,0,1-3.81-11,11.56,11.56,0,0,1,1.09-1.22c4.08-4.09,8.2-8.12,12.22-12.25a8.43,8.43,0,0,1,6.41-2.63q23.56.06,47.14,0h18.9a68.09,68.09,0,0,1,65.81,52A69.43,69.43,0,0,1,473.62,470.24Z" transform="translate(-300.21 -126.1)"/></svg>