<?xml version="1.0" encoding="utf-8"?>
<!-- Generator: Adobe Illustrator 25.0.0, SVG Export Plug-In . SVG Version: 6.00 Build 0)  -->
<svg version="1.1" id="Layer_1" xmlns="http://www.w3.org/2000/svg" xmlns:xlink="http://www.w3.org/1999/xlink" x="0px" y="0px"
	 viewBox="0 0 500 500" style="enable-background:new 0 0 500 500;" xml:space="preserve">
<style type="text/css">.cls-1{fill:#fff;}
</style>
<path class="cls-1" d="M459,101.5c-1.1,15-9.6,67.4-18.2,124.1C428,305.8,414,393.5,414,393.5s-2.1,24.6-20.3,28.9
	c-18.2,4.3-48.1-15-53.5-19.2c-4.3-3.2-80.2-51.3-108-74.9c-7.5-6.4-16-19.2,1.1-34.2c38.5-35.3,84.5-79.1,112.3-106.9
	c12.8-12.8,25.7-42.8-27.8-6.4C241.9,233,167.1,282.2,167.1,282.2s-17.1,10.7-49.2,1.1c-32.1-9.6-69.6-22.5-69.6-22.5
	s-25.7-16,18.2-33.2c0,0,185-75.9,249.2-102.7c24.6-10.7,108-44.9,108-44.9S462.2,65.1,459,101.5z"/>
</svg>
