<?xml version="1.0" encoding="utf-8"?>
<!-- Generator: Adobe Illustrator 25.0.0, SVG Export Plug-In . SVG Version: 6.00 Build 0)  -->
<svg version="1.1" id="Layer_1" xmlns="http://www.w3.org/2000/svg" xmlns:xlink="http://www.w3.org/1999/xlink" x="0px" y="0px"
	 viewBox="0 0 1070.2 1036.6" style="enable-background:new 0 0 1070.2 1036.6;" xml:space="preserve">
<style type="text/css">
	.st0{fill:none;stroke:#FFFFFF;stroke-width:12;stroke-miterlimit:10;}
</style>
<g id="Layer_1_1_">
	<path class="st0" d="M746,6H86C41.8,6,6,41.8,6,86v820c0,44.2,35.8,80,80,80h596L523.1,807.3H211c-33.1,0-60-26.9-60-60
		s26.9-60,60-60h410c2.8,0,5.5,0.2,8.3,0.6H686V519.4c0-77.2,62.8-140,140-140V86C826,41.8,790.2,6,746,6z M196.1,574.8
		c1-58.1,20.7-108.5,60.6-150.7s89.2-64.4,146.8-69c-62.5-8.8-101.6-62.5-97.1-118.1c4.6-56.6,51.3-100.6,106.6-101.6
		c55.4-1.3,103.2,38.7,111.7,93.5c9.1,59.3-31.9,117.4-96.1,126.1c75.2,6.9,133.9,41.3,174.5,105.1c22.1,34.7,32.4,73.1,32.7,114.6
		H196.1z"/>
</g>
<g id="Layer_3">
	<path class="st0" d="M1056.9,767.8L826,1027.6L595.1,767.8H766V519.4c0-33.1,26.9-60,60-60s60,26.9,60,60v248.5H1056.9z"/>
</g>
</svg>
