<?xml version="1.0" encoding="utf-8"?>
<!-- Generator: Adobe Illustrator 25.0.0, SVG Export Plug-In . SVG Version: 6.00 Build 0)  -->
<svg version="1.1" id="Layer_1" xmlns="http://www.w3.org/2000/svg" xmlns:xlink="http://www.w3.org/1999/xlink" x="0px" y="0px"
	 viewBox="0 0 432.4 298.3" style="enable-background:new 0 0 432.4 298.3;" xml:space="preserve">
<style type="text/css">
	.st0{fill:#FFFFFF;}
</style>
<g>
	<path class="st0" d="M287.1,39.6C287.1,39.6,287.2,39.6,287.1,39.6c16.7,0,32.6,6.9,43.9,19c13.5-2.7,26.4-7.6,38.2-14.6
		c-4.5,14-13.9,25.9-26.5,33.4c11.9-1.4,23.6-4.6,34.6-9.5c-8.1,12.1-18.3,22.7-30.1,31.2c0.1,2.5,0.1,5.1,0.1,7.8
		c0,79.6-60.6,171.5-171.5,171.5c-0.1,0-0.3,0-0.4,0c-32.6,0-64.4-9.5-91.7-27.3c4.6,0.6,9.2,0.9,13.8,0.9c0.2,0,0.4,0,0.5,0
		c0.1,0,0.1,0,0.2,0c27.1,0,53.3-9.1,74.7-25.8c-25.8-0.5-48.4-17.3-56.2-41.9c3.7,0.7,7.5,1.1,11.3,1.1c0,0,0.1,0,0.1,0
		c0,0,0,0,0,0c5.4,0,10.7-0.7,15.8-2.1c-28.1-5.7-48.4-30.4-48.4-59.1v-0.8c8.3,4.7,17.7,7.2,27.2,7.5
		c-26.5-17.6-34.7-52.8-18.7-80.4c30.6,37.7,75.8,60.6,124.2,63c-1.1-4.5-1.7-9.1-1.6-13.8C226.8,66.6,253.8,39.6,287.1,39.6
		 M404.4,0l-45.2,26.8c-7.1,4.2-14.7,7.5-22.6,9.9c-14-10.9-31.4-17-49.4-17h0h0h-0.1c-41.2,0-75.3,31.2-79.8,71.3
		C173.1,84,142,65.4,119.7,38l-18.3-22.5L86.9,40.6c-9,15.4-12.2,32.7-10.3,49.3l-0.9-0.5v34.1v0.8c0,17.6,5.8,34.8,16.5,48.7
		l5.6,17.5c4.9,15.4,14.2,28.6,26.3,38.2c-8.3,2.2-17,3.3-25.6,3.3l-0.2,0l-0.1,0l-0.1,0l-0.4,0c-3.8,0-7.6-0.2-11.3-0.7L0,220.3
		l72.9,47.5c30.6,19.9,66.1,30.5,102.6,30.5l0.4,0v0c29.4,0,57-5.9,82-17.5c23-10.7,43.3-25.9,60.4-45.2
		c30.8-35,48.7-81.1,49.2-126.9c10.2-8.6,19.1-18.6,26.6-29.7l38.4-57.2l-40.8,18L404.4,0L404.4,0z"/>
</g>
</svg>
