<svg id="Layer_1" data-name="Layer 1" xmlns="http://www.w3.org/2000/svg" viewBox="0 0 500 500"><defs><style>.cls-1{fill:#fff;}</style></defs><title>CV</title><path class="cls-1" d="M250,0C111.93,0,0,111.93,0,250S111.93,500,250,500,500,388.07,500,250,388.07,0,250,0Zm-2.81,278.35c-3.45,13.89-12,26.24-25.4,36.7s-30.32,15.75-50.33,15.75h-.29c-23.24,0-42.91-7.77-58.46-23.1S89.24,272.9,89.24,250c0-22.68,7.85-42,23.34-57.51s34.93-23.24,58-23.24c20.35,0,37.48,5.34,50.93,15.86s22.14,23.1,25.59,37.21L249,230l-47.61,11.77-2.15-7.36c-1.37-4.66-4.52-8.75-9.64-12.49s-11.26-5.59-18.72-5.59c-9.57,0-17,3.07-22.67,9.37-5.91,6.54-8.78,14.41-8.78,24a34.78,34.78,0,0,0,9,24.17c5.79,6.47,13.2,9.62,22.65,9.62,7.5,0,13.65-1.78,18.8-5.45s8.12-7.55,9.46-12.14l2.17-7.4,47.61,12.06ZM349.94,328H302.57l-60.83-156h54.1l30.4,82.42,30.64-82.42h53.88Z"/></svg>