<svg id="Layer_1" data-name="Layer 1" xmlns="http://www.w3.org/2000/svg" viewBox="0 0 500 487.65"><defs><style>.cls-1,.cls-2{fill:#fff;}.cls-1{fill-rule:evenodd;}</style></defs><title>gh</title><g id="Github"><path class="cls-1" d="M250.29,6.07c-138.06,0-250,111.93-250,250,0,110.46,71.63,204.17,171,237.23,12.49,2.31,17.08-5.43,17.08-12,0-6-.23-25.65-.34-46.54-69.55,15.12-84.22-29.5-84.22-29.5C92.4,376.33,76,368.65,76,368.65c-22.69-15.52,1.71-15.2,1.71-15.2,25.1,1.76,38.32,25.77,38.32,25.77,22.3,38.21,58.49,27.17,72.75,20.78,2.25-16.16,8.72-27.19,15.88-33.43C149.14,360.25,90.76,338.81,90.76,243c0-27.3,9.77-49.6,25.76-67.11-2.59-6.3-11.15-31.72,2.42-66.16,0,0,21-6.71,68.77,25.63a237.19,237.19,0,0,1,125.2,0c47.72-32.34,68.68-25.63,68.68-25.63,13.61,34.44,5.05,59.86,2.46,66.16,16,17.51,25.73,39.81,25.73,67.11,0,96-58.49,117.16-114.16,123.35,9,7.76,17,23,17,46.29,0,33.45-.29,60.38-.29,68.61,0,6.66,4.5,14.45,17.17,12,99.28-33.1,170.83-126.78,170.83-237.2C500.29,118,388.35,6.07,250.29,6.07Z" transform="translate(-0.29 -6.07)"/><path class="cls-2" d="M95,365c-.55,1.24-2.5,1.62-4.28.76s-2.83-2.51-2.24-3.75,2.49-1.64,4.3-.78S95.6,363.77,95,365Zm-3.07-2.28" transform="translate(-0.29 -6.07)"/><path class="cls-2" d="M105.1,376.31c-1.19,1.11-3.52.59-5.1-1.15s-1.94-4.08-.74-5.2,3.49-.58,5.13,1.16,2,4.07.71,5.19Zm-2.38-2.55" transform="translate(-0.29 -6.07)"/><path class="cls-2" d="M115,390.71c-1.53,1.07-4,.07-5.59-2.15s-1.53-4.9,0-6,4-.11,5.58,2.1,1.53,4.92,0,6Zm0,0" transform="translate(-0.29 -6.07)"/><path class="cls-2" d="M128.46,404.62c-1.37,1.51-4.29,1.11-6.42-1s-2.8-4.87-1.43-6.38,4.33-1.09,6.48,1,2.83,4.89,1.37,6.38Zm0,0" transform="translate(-0.29 -6.07)"/><path class="cls-2" d="M147.09,412.7c-.61,2-3.41,2.85-6.25,2s-4.67-3.15-4.1-5.12,3.41-2.9,6.26-2,4.68,3.13,4.09,5.12Zm0,0" transform="translate(-0.29 -6.07)"/><path class="cls-2" d="M167.55,414.2c.07,2.06-2.33,3.77-5.3,3.8s-5.41-1.6-5.44-3.63,2.34-3.77,5.33-3.82,5.41,1.6,5.41,3.65Zm0,0" transform="translate(-0.29 -6.07)"/><path class="cls-2" d="M186.59,411c.36,2-1.71,4.07-4.66,4.62s-5.59-.71-6-2.7,1.74-4.13,4.64-4.66,5.6.69,6,2.74Zm0,0" transform="translate(-0.29 -6.07)"/></g></svg>