<svg id="Layer_1" data-name="Layer 1" xmlns="http://www.w3.org/2000/svg" viewBox="0 0 500 500"><defs><style>.cls-1{fill:#fff;}</style></defs><title>linkedin</title><path class="cls-1" d="M250,0C112,0,0,112,0,250S112,500,250,500,500,388.05,500,250,388.05,0,250,0ZM177.35,377.93H116.47V194.75h60.88ZM146.91,169.74h-.4c-20.43,0-33.64-14.07-33.64-31.64,0-18,13.62-31.65,34.45-31.65s33.64,13.67,34,31.65C181.36,155.67,168.14,169.74,146.91,169.74Zm250,208.19H336v-98c0-24.62-8.82-41.42-30.85-41.42-16.82,0-26.83,11.33-31.24,22.27-1.61,3.91-2,9.38-2,14.85v102.3H211.05s.8-166,0-183.18h60.88v25.94c8.09-12.48,22.57-30.24,54.87-30.24,40.06,0,70.1,26.18,70.1,82.45Z"/></svg>