<svg id="Layer_1" data-name="Layer 1" xmlns="http://www.w3.org/2000/svg" viewBox="0 0 500 500"><defs><style>.cls-1{fill:#fff;}</style></defs><title>Skype</title><path class="cls-1" d="M250,0C111.93,0,0,111.93,0,250S111.93,500,250,500,500,388.07,500,250,388.07,0,250,0Zm31.29,408.68C167.68,429.27,70.05,330.3,92.91,219.51A91.27,91.27,0,0,1,80,172.65C80,99.2,162.2,55.91,223.93,94.22c113.72-19.28,210.55,81.14,186,191.67C450.36,366.45,361.61,451.15,281.29,408.68Z"/><path class="cls-1" d="M346.05,292.36c-.07,28.19-17.35,49.2-44.26,60.19-29.84,12.27-78.93,12.34-108.64-3.22-42.36-22.58-49.89-73.43-13.35-73.43,27.55,0,18.83,32.11,46.64,45.2,12.76,5.9,40.2,6.51,56.15-4.25,15.76-10.54,14.31-27.13,5.75-35.05-22.69-20.95-87.6-12.63-117.28-49.3-12.9-15.9-15.33-44,.52-64.32,27.63-35.55,108.69-37.72,143.55-10.87,32.18,24.91,23.49,58-2.48,58-31.23,0-14.81-40.87-65.24-40.87-36.56,0-50.93,26-25.19,38.65C257.12,230.4,346.05,224.61,346.05,292.36Z"/></svg>