<svg id="Layer_1" data-name="Layer 1" xmlns="http://www.w3.org/2000/svg" viewBox="0 0 500 500"><defs><style>.cls-1{fill:#fff;}</style></defs><title>telegram</title><path id="Telegram" class="cls-1" d="M250,0C111.93,0,0,111.93,0,250S111.93,500,250,500,500,388.07,500,250,388.07,0,250,0ZM369.22,162.57c-.72,10.12-6.5,45.52-12.28,83.82-8.67,54.19-18.07,113.44-18.07,113.44s-1.44,16.62-13.73,19.51-32.51-10.12-36.12-13c-2.89-2.17-54.19-34.68-73-50.58-5.06-4.33-10.84-13,.72-23.12,26-23.84,57.08-53.47,75.87-72.25,8.67-8.67,17.34-28.91-18.79-4.34C222.54,251.45,172,284.68,172,284.68s-11.57,7.23-33.24.72-47-15.17-47-15.17-17.34-10.84,12.29-22.4c0,0,125-51.3,168.35-69.36,16.62-7.23,73-30.35,73-30.35S371.39,138,369.22,162.57Z"/></svg>