<svg id="Layer_1" data-name="Layer 1" xmlns="http://www.w3.org/2000/svg" viewBox="0 0 500 500"><defs><style>.cls-1{fill:#fff;}</style></defs><title>tw</title><path id="Twitter" class="cls-1" d="M250,0C111.93,0,0,111.93,0,250S111.93,500,250,500,500,388.07,500,250,388.07,0,250,0ZM375.62,202.63c.13,2.5.13,5.12.13,7.75,0,79.62-60.63,171.5-171.5,171.5a168,168,0,0,1-92.13-27.25,110.5,110.5,0,0,0,14.38.87,121.11,121.11,0,0,0,74.87-25.75,60.19,60.19,0,0,1-56.25-41.87A57.56,57.56,0,0,0,156.5,289a60.26,60.26,0,0,0,15.87-2.12A60.35,60.35,0,0,1,124,227.75V227a59.18,59.18,0,0,0,27.25,7.5,60.23,60.23,0,0,1-18.75-80.37,171,171,0,0,0,124.25,63,55,55,0,0,1-1.63-13.75,60.31,60.31,0,0,1,104.25-41.25,121.9,121.9,0,0,0,38.25-14.63,60.23,60.23,0,0,1-26.5,33.38,122.37,122.37,0,0,0,34.63-9.5A123.67,123.67,0,0,1,375.62,202.63Z"/></svg>