<svg id="Layer_1" data-name="Layer 1" xmlns="http://www.w3.org/2000/svg" viewBox="0 0 399.87 390"><defs><style>.cls-1,.cls-2{fill:#fff;}.cls-1{fill-rule:evenodd;}</style></defs><title>github</title><g id="Github"><path class="cls-1" d="M250.29,54.9c-110.41,0-199.94,89.51-199.94,199.94A200,200,0,0,0,187.08,444.56c10,1.85,13.66-4.34,13.66-9.62,0-4.77-.19-20.52-.27-37.23-55.62,12.1-67.36-23.59-67.36-23.59-9.1-23.1-22.2-29.25-22.2-29.25-18.14-12.41,1.37-12.15,1.37-12.15,20.07,1.41,30.64,20.6,30.64,20.6,17.84,30.57,46.78,21.73,58.19,16.62,1.79-12.92,7-21.74,12.69-26.74-44.41-5.05-91.09-22.2-91.09-98.8,0-21.83,7.81-39.67,20.6-53.67-2.08-5-8.92-25.37,1.94-52.91,0,0,16.79-5.37,55,20.49a189.58,189.58,0,0,1,100.13,0c38.16-25.86,54.93-20.49,54.93-20.49,10.88,27.54,4,47.87,2,52.91,12.82,14,20.58,31.84,20.58,53.67,0,76.79-46.77,93.7-91.3,98.65,7.18,6.2,13.56,18.37,13.56,37,0,26.75-.23,48.28-.23,54.87,0,5.32,3.6,11.56,13.74,9.59A200,200,0,0,0,450.22,254.84C450.22,144.41,360.71,54.9,250.29,54.9Z" transform="translate(-50.35 -54.9)"/><path class="cls-2" d="M126.08,342c-.44,1-2,1.29-3.43.61s-2.26-2-1.8-3,2-1.3,3.45-.62,2.28,2,1.78,3Zm-2.46-1.83" transform="translate(-50.35 -54.9)"/><path class="cls-2" d="M134.18,351c-1,.88-2.82.47-4.09-.92s-1.55-3.26-.58-4.16,2.79-.47,4.1.93,1.56,3.25.57,4.15ZM132.27,349" transform="translate(-50.35 -54.9)"/><path class="cls-2" d="M142.06,362.51c-1.23.86-3.23.06-4.47-1.72s-1.23-3.91,0-4.77,3.21-.08,4.47,1.68,1.22,3.94,0,4.81Zm0,0" transform="translate(-50.35 -54.9)"/><path class="cls-2" d="M152.86,373.64c-1.1,1.21-3.43.88-5.14-.77s-2.23-3.9-1.14-5.11,3.46-.87,5.18.77,2.26,3.91,1.1,5.11Zm0,0" transform="translate(-50.35 -54.9)"/><path class="cls-2" d="M167.76,380.1c-.49,1.56-2.74,2.28-5,1.61s-3.74-2.52-3.28-4.1,2.72-2.32,5-1.61,3.75,2.51,3.28,4.1Zm0,0" transform="translate(-50.35 -54.9)"/><path class="cls-2" d="M184.12,381.3c.06,1.64-1.87,3-4.24,3s-4.33-1.28-4.35-2.9,1.87-3,4.26-3.06,4.33,1.28,4.33,2.92Zm0,0" transform="translate(-50.35 -54.9)"/><path class="cls-2" d="M199.35,378.71c.28,1.6-1.37,3.26-3.73,3.69s-4.47-.56-4.77-2.16,1.4-3.3,3.71-3.73,4.48.56,4.79,2.2Zm0,0" transform="translate(-50.35 -54.9)"/></g></svg>