<svg id="Layer_1" data-name="Layer 1" xmlns="http://www.w3.org/2000/svg" viewBox="0 0 284.03 271.48"><defs><style>.cls-1{fill:#fff;}</style></defs><title>linkedin</title><path class="cls-1" d="M396.9,272.9v105H336v-98c0-24.62-8.82-41.42-30.85-41.42-16.82,0-26.83,11.33-31.24,22.27-1.61,3.91-2,9.38-2,14.85v102.3H211.05s.8-166,0-183.18h60.88v25.94c8.09-12.48,22.57-30.24,54.87-30.24C366.86,190.45,396.9,216.63,396.9,272.9Z" transform="translate(-112.87 -106.45)"/><rect class="cls-1" x="3.6" y="88.3" width="60.88" height="183.18"/><path class="cls-1" d="M181.36,138.1c0,17.57-13.22,31.64-34.45,31.64h-.4c-20.43,0-33.64-14.07-33.64-31.64,0-18,13.62-31.65,34.45-31.65S181,120.12,181.36,138.1Z" transform="translate(-112.87 -106.45)"/></svg>