<svg id="Layer_1" data-name="Layer 1" xmlns="http://www.w3.org/2000/svg" viewBox="0 0 340 340.05"><defs><style>.cls-1{fill:#fff;}</style></defs><title>skype</title><path class="cls-1" d="M409.88,285.89c24.6-110.53-72.23-210.95-185.95-191.67C162.2,55.91,80,99.2,80,172.65a91.27,91.27,0,0,0,12.91,46.86C70.05,330.3,167.68,429.27,281.29,408.68,361.61,451.15,450.36,366.45,409.88,285.89ZM301.79,352.55c-29.84,12.27-78.93,12.34-108.64-3.22-42.36-22.58-49.89-73.43-13.35-73.43,27.55,0,18.83,32.11,46.64,45.2,12.76,5.9,40.2,6.51,56.15-4.25,15.76-10.54,14.31-27.13,5.75-35.05-22.69-20.95-87.6-12.63-117.28-49.3-12.9-15.9-15.33-44,.52-64.32,27.63-35.55,108.69-37.72,143.55-10.87,32.18,24.91,23.49,58-2.48,58-31.23,0-14.81-40.87-65.24-40.87-36.56,0-50.93,26-25.19,38.65,34.9,17.34,123.83,11.55,123.83,79.3C346,320.55,328.7,341.56,301.79,352.55Z" transform="translate(-80 -79.98)"/></svg>